PathFileType	4	(X/Y/Z)	C:/Users/beibeiliu/ov580/test_trc/User1\sequence.24_training_dense_left.trc
DataRate	CameraRate	NumFrames	NumMarkers	Units	OrigDataRate	OrigDataStartFrame	OrigNumFrames
120	120	22	19	mm	120	1	76
Frame#	Time	ThumbCMC			ThumbMCP			ThumbIP			ThumbTip			IndexMCP			IndexPIP			IndexTip			MiddleMCP			MiddlePIP			MiddleTip			RingMCP			RingPIP			RingTip			PinkyMCP			PinkyPIP			PinkyTip			BackHand1			BackHand2			BackHand3	
		X0	Y0	Z0	X1	Y1	Z1	X2	Y2	Z2	X3	Y3	Z3	X4	Y4	Z4	X5	Y5	Z5	X6	Y6	Z6	X7	Y7	Z7	X8	Y8	Z8	X9	Y9	Z9	X10	Y10	Z10	X11	Y11	Z11	X12	Y12	Z12	X13	Y13	Z13	X14	Y14	Z14	X15	Y15	Z15	X16	Y16	Z16	X17	Y17	Z17	X18	Y18	Z18	
0	0	-165.483	42.5569	94.8165	-138.321	44.4051	69.593	-123.531	40.2469	43.0878	-110.441	19.2768	21.7834	-176.736	10.5144	13.2137	-157.4	1.56349	-10.3653	-120.534	-4.15278	-11.6161	-180.075	-12.4339	8.62407	-153.798	-21.3986	-13.38	-117.474	-24.4989	-2.90873	-177.05	-33.745	17.2736	-153.271	-41.4956	-0.54517	-121.638	-41.7157	7.77067	-172.132	-55.8705	41.1723	-152.038	-58.858	26.3705	-123.123	-43.752	24.7058	-201.806	-20.4327	72.6328	-206.605	-14.5269	111.374	-200.556	15.879	84.7176	
1	0.00833333	-166.421	38.7809	93.0987	-139.497	43.907	68.4608	-126.946	35.0259	45.0212	-110.729	19.0226	23.8896	-176.665	7.26766	12.5335	-153.91	-2.89841	-11.0965	-119.475	-6.52737	-9.16945	-178.826	-14.7774	6.67621	-155.745	-22.0332	-12.6647	-116.867	-25.3112	-2.67305	-177.985	-40.0453	20.1311	-151.994	-42.1571	0.140029	-116.328	-40.973	9.92918	-172.663	-54.4493	44.4473	-145.8	-59.2706	25.3125	-120.828	-47.028	24.2101	-200.455	-24.9623	77.2199	-206.775	-16.642	108.923	-199.817	13.625	83.3219	
2	0.0166667	-166.392	38.2871	95.0733	-140.547	42.8759	71.6166	-124.574	36.3257	41.6083	-111.679	21.9185	27.9299	-174.514	9.91842	8.35455	-155.492	-2.87029	-9.25423	-123.311	-3.08315	-11.4109	-180.534	-17.3776	10.452	-154.354	-22.9586	-12.0511	-117.986	-22.6771	-4.98675	-177.878	-35.5576	21.4675	-146.982	-42.7303	0.392253	-116.872	-41.6812	10.3167	-171.793	-57.0209	43.6411	-146.725	-60.2908	26.4371	-121.483	-45.3643	26.522	-200.518	-26.7694	77.3422	-204.342	-17.4069	109.255	-199.859	11.3305	86.7847	
3	0.025	-166.021	40.7084	89.5285	-140.665	41.5002	68.6245	-125.41	35.8895	43.7608	-110.023	23.6266	28.1987	-174.416	6.75449	9.68433	-152.098	-0.685781	-12.6246	-123.875	-8.60093	-8.79745	-180.2	-15.5627	11.1435	-151.845	-24.3358	-12.4226	-116.912	-25.6835	-3.53333	-176.179	-36.326	18.9847	-147.493	-44.2202	0.808052	-120.338	-41.034	7.22088	-171.68	-52.5893	44.2828	-148.335	-56.8083	24.7345	-120.123	-45.8838	24.128	-198.782	-25.8488	74.1213	-204.94	-21.3662	108.528	-199.911	12.1746	83.1913	
4	0.0333333	-166.241	37.3435	93.5866	-139.187	42.2097	66.5023	-122.897	38.4986	44.1489	-107.331	22.7475	25.6577	-175.056	10.5786	10.9417	-155.841	-1.67099	-10.6705	-123.154	-5.55994	-12.1608	-178.22	-14.6404	4.77439	-148.977	-21.8652	-13.2766	-117.447	-24.2207	-5.64725	-175.59	-40.5013	20.8042	-145.887	-43.2272	-0.322396	-116.347	-42.0904	10.862	-169.734	-58.1907	43.2673	-149.54	-56.3182	25.5234	-119.562	-46.3741	24.3965	-200.43	-25.762	74.1587	-205	-15.2781	105.539	-198.587	11.862	82.6958	
5	0.0416667	-165.573	37.4553	90.0024	-139.374	41.9673	68.1664	-123.991	35.5459	42.1201	-106.742	22.0217	25.3051	-174.48	12.3402	12.2075	-151.612	-4.38932	-10.0035	-122.871	-5.86118	-11.2716	-177.358	-17.6651	7.41937	-151.16	-22.0993	-12.7499	-116.239	-26.3605	-2.68729	-175.5	-40.293	20.8563	-145.775	-45.5252	1.07519	-118.657	-43.969	9.87049	-170.855	-55.7264	42.6581	-150.957	-57.1741	26.1097	-120.563	-47.4374	26.2259	-199.727	-21.3745	77.1077	-204.396	-16.9909	108.082	-197.759	15.8057	83.8259	
6	0.05	-165.696	40.6927	90.7713	-138.443	44.3973	67.5858	-124.181	36.7058	47.5149	-109.44	23.4504	27.839	-173.712	7.77653	10.0447	-155.677	1.05318	-9.14498	-123.566	-6.56814	-9.97732	-177.486	-17.6106	7.7714	-153.671	-20.4952	-11.7253	-114.38	-23.186	-3.31501	-176.547	-34.3923	22.2476	-149.031	-43.4111	1.73471	-115.319	-38.9875	9.13765	-170.333	-57.0047	43.7758	-145.641	-57.3869	25.7986	-119.664	-45.7652	25.4066	-197.759	-19.8605	77.9971	-204.954	-17.6417	110.558	-200.331	13.6834	86.2611	
7	0.0583333	-166.347	41.6956	96.4064	-138.901	45.0493	71.5529	-123.655	39.9091	43.2337	-107.487	26.3576	26.1766	-174.978	10.1467	11.2927	-151.776	1.7922	-10.5258	-123.742	-6.39404	-9.73478	-177.555	-15.0989	8.44312	-153.088	-20.6472	-10.6703	-112.75	-18.4275	-2.70212	-176.152	-34.0078	21.6602	-148.25	-44.8855	3.15138	-118.664	-41.1136	9.51069	-169.878	-56.6693	41.7882	-149.475	-56.6381	26.583	-118.15	-43.2442	26.1229	-198.725	-24.8911	79.6967	-204.533	-17.7162	109.588	-200.801	16.7398	85.8256	
8	0.0666667	-164.491	40.8293	94.0535	-138.457	43.5081	69.4504	-125.217	37.4336	46.332	-109.652	23.1171	25.0462	-175.059	11.8166	13.6178	-151.12	0.84674	-10.6373	-118.703	-1.08679	-10.9495	-178.948	-12.9416	11.3847	-149.564	-22.8545	-10.7832	-114.878	-21.0699	-2.747	-175.36	-36.0297	20.8953	-148.549	-44.2763	2.95382	-116.172	-37.5233	9.82418	-171.624	-55.5689	46.3438	-150.671	-56.8554	26.8639	-119.336	-45.4719	24.6906	-197.267	-21.9287	77.9618	-203.238	-17.2736	113.028	-197.747	15.3433	87.592	
9	0.075	-163.632	39.4623	95.9811	-134.852	47.0255	69.4865	-121.162	42.2694	46.8666	-108.439	24.2354	29.5076	-172.786	13.3509	12.1261	-154.587	0.0842116	-8.28486	-120.906	-5.28578	-10.8686	-177.292	-11.1888	8.53533	-151.077	-18.4391	-12.3049	-115.624	-21.0496	-3.79028	-174.831	-32.3061	18.5973	-149.975	-44.9964	2.5949	-117.558	-39.8251	10.1431	-172.331	-50.3239	45.3246	-148.106	-57.161	26.2426	-121.203	-44.7455	24.7146	-198.076	-23.2385	78.4438	-203.786	-16.2127	108.386	-196.903	17.6366	87.8239	
10	0.0833333	-163.204	41.7172	93.4376	-135.929	45.9733	70.3761	-121.154	39.9031	45.6021	-106.264	24.0247	25.8753	-171.826	10.5321	12.0733	-152.839	2.22193	-9.40781	-118.494	-6.13734	-9.80724	-176.341	-13.0456	7.39908	-151.7	-19.4642	-11.2063	-115.732	-25.3761	-2.92153	-174.961	-37.8188	22.1666	-149.342	-44.244	2.52349	-115.612	-39.5871	9.86234	-171.854	-50.5156	45.0407	-148.831	-56.9053	25.6153	-121.442	-45.4878	24.8448	-197.858	-22.7036	78.6509	-202.297	-15.476	107.299	-197.59	15.8641	86.6774	
11	0.0916667	-163.132	38.2014	96.9614	-134.738	48.5403	71.6779	-120.713	42.0847	46.5461	-108.457	24.4548	29.2557	-171.799	11.9171	11.2665	-151.017	1.74547	-10.4046	-122.476	-6.03391	-10.4519	-177.353	-12.2138	10.2288	-150.249	-21.9798	-11.6978	-112.235	-23.8791	-2.79295	-175.731	-36.1058	23.6082	-149.954	-41.1864	2.19135	-118.642	-42.5629	8.99123	-170.088	-51.0199	40.0697	-151.049	-55.7094	26.5987	-118.675	-47.1226	25.3545	-199.399	-22.6953	76.5731	-204.092	-17.4405	109.606	-194.981	17.9335	84.8471	
12	0.1	-164.295	37.7621	92.8173	-137.047	43.0467	71.7166	-120.17	41.9248	46.6044	-106.238	26.5725	26.7831	-171.506	12.0156	10.148	-151.951	3.26416	-10.8946	-123.382	-5.08779	-11.3065	-176.046	-11.159	8.22668	-148.448	-21.7349	-11.5295	-115.214	-25.5025	-4.02323	-175.615	-37.9629	22.2537	-146.827	-40.2688	1.05324	-117.127	-41.2422	9.72181	-171.282	-53.6376	45.1308	-150.913	-57.4685	27.2057	-118.436	-44.9432	24.5854	-196.406	-19.1178	74.8035	-202.789	-14.6262	111.513	-195.061	16.0446	87.6224	
13	0.108333	-161.922	39.2582	96.5509	-134.707	46.2593	69.721	-120.646	40.9674	44.3744	-106.092	24.0627	26.0821	-172.859	9.21172	14.4035	-154.653	0.269163	-9.31386	-119.182	-6.43306	-10.6659	-176.14	-13.4861	6.64304	-148.495	-20.4676	-12.0373	-115.276	-23.6336	-4.36092	-174.396	-35.6721	19.4612	-149.974	-42.3023	2.44669	-118.513	-40.9102	9.14938	-170.141	-51.4804	39.628	-145.557	-56.8377	26.1103	-119.448	-44.1044	24.7898	-196.315	-20.1198	74.7136	-204.354	-14.627	108.484	-197.244	16.8713	89.067	
14	0.116667	-162.654	41.3976	95.6582	-135.34	46.5227	73.1786	-119.854	41.394	47.1679	-107.369	24.0985	28.5666	-172.036	8.41754	11.9148	-152.85	-1.27001	-8.81277	-119.761	-6.10486	-9.41885	-176.695	-11.435	9.8328	-149.944	-19.5665	-11.6138	-110.984	-24.4842	-0.825461	-174.613	-34.5793	20.3765	-147.613	-42.1552	1.9709	-119.169	-39.6827	9.32117	-169.893	-55.4378	41.1871	-149.973	-58.434	26.3945	-116.531	-45.7831	24.9516	-198.6	-23.1427	78.156	-201.794	-14.2735	108.146	-196.73	15.26	86.6336	
15	0.125	-163.037	41.0784	95.0978	-136.385	45.0285	70.3452	-121.091	40.229	42.827	-105.724	25.5187	29.3775	-172.728	11.2051	12.5664	-152.588	2.47739	-10.445	-117.294	-7.27246	-9.27857	-178.102	-14.3078	11.1841	-147.659	-19.026	-12.8221	-114.085	-22.9459	-4.10204	-175.625	-35.737	22.2189	-149.05	-40.5873	2.47598	-118.033	-40.8207	10.4888	-170.142	-55.5505	42.81	-149.027	-55.6809	26.2283	-119.299	-42.959	24.1818	-196.813	-21.4133	75.1811	-202.745	-14.619	108.994	-198.387	17.13	83.6007	
16	0.133333	-163.938	41.8885	96.3251	-136.114	45.9255	67.4743	-122.335	40.0021	45.8502	-107.901	22.7382	25.5641	-173.701	10.6946	14.6584	-150.351	-1.45313	-9.17521	-120.2	-6.46187	-9.93643	-177.923	-15.7783	13.1165	-150.074	-23.4248	-11.1161	-114.979	-24.7056	-3.7822	-173.86	-33.2658	20.7941	-146.658	-43.3431	2.13216	-113.959	-40.6419	11.2919	-168.921	-54.2111	42.1427	-149.284	-56.6183	26.7006	-121.193	-44.6031	24.8845	-197.744	-21.7217	79.6402	-204.042	-14.1717	107.164	-198.651	14.7042	83.4937	
17	0.141667	-163.559	42.7234	94.2481	-136.733	45.1052	72.5637	-122.001	40.0922	47.4978	-106.474	24.5996	26.6217	-173.312	13.7572	14.0914	-150.445	-1.32001	-9.24798	-120.771	-5.85995	-9.78029	-176.548	-15.098	8.31468	-150.941	-20.2627	-11.441	-111.585	-24.7129	-1.72275	-174.632	-36.7487	20.8139	-149.497	-43.9202	2.31715	-116.522	-36.9198	9.53692	-170.92	-52.1258	43.9764	-146.791	-57.7689	26.1962	-122.539	-46.4758	24.1997	-197.964	-20.2824	76.3602	-203.741	-16.71	107.326	-198.375	13.3773	85.6217	
18	0.15	-163.522	43.1408	93.2413	-137.759	44.4094	73.2445	-120.939	40.1528	43.873	-109.831	22.8334	29.0246	-172.784	12.969	15.5027	-152.539	1.53465	-9.72286	-120.328	-7.34697	-8.96058	-178.224	-12.843	10.9235	-147.944	-23.5127	-11.5058	-116.46	-25.8364	-4.33851	-176.013	-35.2952	22.784	-147.575	-44.7858	2.36483	-114.476	-39.6194	10.4272	-170.756	-52.7842	44.6387	-147.471	-54.9153	25.7156	-123.118	-44.3439	23.0655	-197.384	-18.8018	78.3503	-205.249	-15.6667	110.479	-196.297	13.0437	87.2774	
19	0.158333	-163.694	40.5309	94.3257	-136.142	47.6738	70.9739	-122.362	40.5445	46.1133	-107.037	25.0926	27.1288	-173.338	9.3289	11.2483	-155.081	1.07337	-8.73637	-120.874	-6.12308	-9.16223	-177.265	-14.7325	7.85289	-150.252	-18.6579	-12.2001	-115.859	-24.3365	-4.39706	-174.097	-38.1325	19.7223	-149.853	-42.1396	2.66275	-115.394	-38.7733	9.77566	-171.677	-54.1058	45.9485	-149.774	-58.4379	26.5077	-120.893	-46.8071	24.6451	-199.408	-20.1033	75.5672	-201.923	-14.1333	112.016	-196.726	18.7686	87.0795	
20	0.166667	-164.205	39.1492	96.0784	-136.374	46.1643	67.5638	-122.028	40.0464	42.2591	-106.722	22.6645	24.7172	-174.449	10.8498	14.7739	-151.809	-1.68145	-10.2426	-118.732	-6.23445	-9.91459	-177.681	-16.2075	10.8331	-151.303	-18.589	-12.6989	-113.804	-22.7316	-4.43636	-174.473	-37.3976	22.0153	-144.565	-44.425	1.33866	-116.675	-37.9333	9.02465	-170.437	-53.8629	44.5656	-148.675	-58.1426	26.5464	-121.681	-43.918	23.0325	-196.531	-21.0404	76.3818	-201.719	-15.0835	107.454	-197.608	13.656	83.3979	
21	0.175	-164.538	40.3587	91.6463	-137.207	45.1058	72.0469	-121.8	40.3566	43.9367	-107.58	25.0153	29.3635	-172.754	10.2091	11.8965	-153.407	1.85207	-11.0131	-121.919	-4.3954	-12.5503	-176.3	-12.8758	5.99554	-148.22	-21.7137	-12.5814	-114.514	-22.4908	-5.42989	-174.28	-36.6801	22.146	-144.774	-42.6007	0.891571	-115.777	-40.0533	9.22126	-168.676	-53.2454	40.9763	-145.857	-55.4944	24.6608	-121.054	-45.4164	23.5972	-196.723	-21.4492	74.8533	-201.801	-16.514	110.495	-196.695	14.045	84.9162	
